<svg width="335" height="74" viewBox="0 0 335 74" fill="none" xmlns="http://www.w3.org/2000/svg">
<path fill-rule="evenodd" clip-rule="evenodd" d="M70.919 55.9462C72.3909 49.3785 64.06 38.9495 51.017 31.5543C36.7898 23.4877 22.3437 22.0857 18.7507 28.4228C17.3829 30.8352 17.785 34.0213 19.5927 37.4876C14.4456 31.4554 12.3397 25.5212 14.6177 21.5034C18.6416 14.4065 34.8198 15.9767 50.7528 25.0104C66.6858 34.0442 76.3402 47.1207 72.3163 54.2176C71.9488 54.8658 71.4799 55.4417 70.919 55.9462Z" fill="#1D66A7"/>
<path fill-rule="evenodd" clip-rule="evenodd" d="M81.3947 18.0538C82.8666 24.6214 74.5357 35.0505 61.4927 42.4457C47.2655 50.5122 32.8194 51.9143 29.2264 45.5772C27.8586 43.1648 28.2607 39.9786 30.0684 36.5124C24.9213 42.5446 22.8154 48.4788 25.0934 52.4966C29.1173 59.5935 45.2955 58.0233 61.2285 48.9896C77.1616 39.9558 86.8159 26.8793 82.792 19.7824C82.4245 19.1342 81.9556 18.5583 81.3947 18.0538Z" fill="#4898DF"/>
<path d="M106.142 39.7955C106.142 38.2115 105.933 37.0895 105.515 36.4295C105.119 35.7695 104.426 35.4395 103.436 35.4395C103.128 35.4395 102.809 35.4615 102.479 35.5055C102.149 35.5275 101.83 35.5605 101.522 35.6045V49.0025H96.6051V32.2385C97.0231 32.1285 97.5071 32.0185 98.0571 31.9085C98.6291 31.7765 99.2231 31.6665 99.8391 31.5785C100.477 31.4685 101.126 31.3915 101.786 31.3475C102.446 31.2815 103.095 31.2485 103.733 31.2485C104.987 31.2485 105.999 31.4135 106.769 31.7435C107.561 32.0515 108.21 32.4255 108.716 32.8655C109.42 32.3595 110.223 31.9635 111.125 31.6775C112.049 31.3915 112.896 31.2485 113.666 31.2485C115.052 31.2485 116.185 31.4465 117.065 31.8425C117.967 32.2165 118.682 32.7555 119.21 33.4595C119.738 34.1635 120.101 34.9995 120.299 35.9675C120.497 36.9355 120.596 38.0135 120.596 39.2015V49.0025H115.679V39.7955C115.679 38.2115 115.47 37.0895 115.052 36.4295C114.656 35.7695 113.963 35.4395 112.973 35.4395C112.709 35.4395 112.335 35.5055 111.851 35.6375C111.389 35.7695 111.004 35.9345 110.696 36.1325C110.85 36.6385 110.949 37.1775 110.993 37.7495C111.037 38.2995 111.059 38.8935 111.059 39.5315V49.0025H106.142V39.7955ZM129.978 49.0025H125.061V31.6445H129.978V49.0025ZM130.44 26.6285C130.44 27.5305 130.143 28.2455 129.549 28.7735C128.977 29.2795 128.295 29.5325 127.503 29.5325C126.711 29.5325 126.018 29.2795 125.424 28.7735C124.852 28.2455 124.566 27.5305 124.566 26.6285C124.566 25.7265 124.852 25.0225 125.424 24.5165C126.018 23.9885 126.711 23.7245 127.503 23.7245C128.295 23.7245 128.977 23.9885 129.549 24.5165C130.143 25.0225 130.44 25.7265 130.44 26.6285ZM133.775 40.3235C133.775 39.0695 133.973 37.8925 134.369 36.7925C134.787 35.6705 135.381 34.7025 136.151 33.8885C136.921 33.0525 137.856 32.3925 138.956 31.9085C140.056 31.4245 141.31 31.1825 142.718 31.1825C143.642 31.1825 144.489 31.2705 145.259 31.4465C146.029 31.6005 146.777 31.8315 147.503 32.1395L146.48 36.0665C146.018 35.8905 145.512 35.7365 144.962 35.6045C144.412 35.4725 143.796 35.4065 143.114 35.4065C141.662 35.4065 140.573 35.8575 139.847 36.7595C139.143 37.6615 138.791 38.8495 138.791 40.3235C138.791 41.8855 139.121 43.0955 139.781 43.9535C140.463 44.8115 141.64 45.2405 143.312 45.2405C143.906 45.2405 144.544 45.1855 145.226 45.0755C145.908 44.9655 146.535 44.7895 147.107 44.5475L147.8 48.5735C147.228 48.8155 146.513 49.0245 145.655 49.2005C144.797 49.3765 143.851 49.4645 142.817 49.4645C141.233 49.4645 139.869 49.2335 138.725 48.7715C137.581 48.2875 136.635 47.6385 135.887 46.8245C135.161 46.0105 134.622 45.0535 134.27 43.9535C133.94 42.8315 133.775 41.6215 133.775 40.3235ZM161.561 36.0005C161.121 35.8905 160.604 35.7805 160.01 35.6705C159.416 35.5385 158.778 35.4725 158.096 35.4725C157.788 35.4725 157.414 35.5055 156.974 35.5715C156.556 35.6155 156.237 35.6705 156.017 35.7365V49.0025H151.1V32.5685C151.98 32.2605 153.014 31.9745 154.202 31.7105C155.412 31.4245 156.754 31.2815 158.228 31.2815C158.492 31.2815 158.811 31.3035 159.185 31.3475C159.559 31.3695 159.933 31.4135 160.307 31.4795C160.681 31.5235 161.055 31.5895 161.429 31.6775C161.803 31.7435 162.122 31.8315 162.386 31.9415L161.561 36.0005ZM180.936 40.2905C180.936 41.6545 180.738 42.9085 180.342 44.0525C179.946 45.1745 179.374 46.1425 178.626 46.9565C177.878 47.7485 176.976 48.3645 175.92 48.8045C174.886 49.2445 173.72 49.4645 172.422 49.4645C171.146 49.4645 169.98 49.2445 168.924 48.8045C167.89 48.3645 166.999 47.7485 166.251 46.9565C165.503 46.1425 164.92 45.1745 164.502 44.0525C164.084 42.9085 163.875 41.6545 163.875 40.2905C163.875 38.9265 164.084 37.6835 164.502 36.5615C164.942 35.4395 165.536 34.4825 166.284 33.6905C167.054 32.8985 167.956 32.2825 168.99 31.8425C170.046 31.4025 171.19 31.1825 172.422 31.1825C173.676 31.1825 174.82 31.4025 175.854 31.8425C176.91 32.2825 177.812 32.8985 178.56 33.6905C179.308 34.4825 179.891 35.4395 180.309 36.5615C180.727 37.6835 180.936 38.9265 180.936 40.2905ZM175.92 40.2905C175.92 38.7725 175.612 37.5845 174.996 36.7265C174.402 35.8465 173.544 35.4065 172.422 35.4065C171.3 35.4065 170.431 35.8465 169.815 36.7265C169.199 37.5845 168.891 38.7725 168.891 40.2905C168.891 41.8085 169.199 43.0185 169.815 43.9205C170.431 44.8005 171.3 45.2405 172.422 45.2405C173.544 45.2405 174.402 44.8005 174.996 43.9205C175.612 43.0185 175.92 41.8085 175.92 40.2905ZM183.92 40.4555C183.92 38.9155 184.151 37.5735 184.613 36.4295C185.097 35.2635 185.724 34.2955 186.494 33.5255C187.264 32.7555 188.144 32.1725 189.134 31.7765C190.146 31.3805 191.18 31.1825 192.236 31.1825C194.7 31.1825 196.647 31.9415 198.077 33.4595C199.507 34.9555 200.222 37.1665 200.222 40.0925C200.222 40.3785 200.211 40.6975 200.189 41.0495C200.167 41.3795 200.145 41.6765 200.123 41.9405H188.969C189.079 42.9525 189.552 43.7555 190.388 44.3495C191.224 44.9435 192.346 45.2405 193.754 45.2405C194.656 45.2405 195.536 45.1635 196.394 45.0095C197.274 44.8335 197.989 44.6245 198.539 44.3825L199.199 48.3755C198.935 48.5075 198.583 48.6395 198.143 48.7715C197.703 48.9035 197.208 49.0135 196.658 49.1015C196.13 49.2115 195.558 49.2995 194.942 49.3655C194.326 49.4315 193.71 49.4645 193.094 49.4645C191.532 49.4645 190.168 49.2335 189.002 48.7715C187.858 48.3095 186.901 47.6825 186.131 46.8905C185.383 46.0765 184.822 45.1195 184.448 44.0195C184.096 42.9195 183.92 41.7315 183.92 40.4555ZM195.47 38.5745C195.448 38.1565 195.371 37.7495 195.239 37.3535C195.129 36.9575 194.942 36.6055 194.678 36.2975C194.436 35.9895 194.117 35.7365 193.721 35.5385C193.347 35.3405 192.874 35.2415 192.302 35.2415C191.752 35.2415 191.279 35.3405 190.883 35.5385C190.487 35.7145 190.157 35.9565 189.893 36.2645C189.629 36.5725 189.42 36.9355 189.266 37.3535C189.134 37.7495 189.035 38.1565 188.969 38.5745H195.47ZM210.946 49.3325C209.516 49.3105 208.35 49.1565 207.448 48.8705C206.568 48.5845 205.864 48.1885 205.336 47.6825C204.83 47.1545 204.478 46.5275 204.28 45.8015C204.104 45.0535 204.016 44.2175 204.016 43.2935V24.1865L208.933 23.3945V42.3035C208.933 42.7435 208.966 43.1395 209.032 43.4915C209.098 43.8435 209.219 44.1405 209.395 44.3825C209.593 44.6245 209.868 44.8225 210.22 44.9765C210.572 45.1305 211.045 45.2295 211.639 45.2735L210.946 49.3325ZM220.081 46.3955C220.081 47.3855 219.762 48.1445 219.124 48.6725C218.508 49.1785 217.804 49.4315 217.012 49.4315C216.22 49.4315 215.505 49.1785 214.867 48.6725C214.251 48.1445 213.943 47.3855 213.943 46.3955C213.943 45.4055 214.251 44.6575 214.867 44.1515C215.505 43.6235 216.22 43.3595 217.012 43.3595C217.804 43.3595 218.508 43.6235 219.124 44.1515C219.762 44.6575 220.081 45.4055 220.081 46.3955Z" fill="#202D41"/>
<path d="M230.799 24.5545C231.231 25.3465 231.723 26.3305 232.275 27.5065C232.851 28.6585 233.439 29.9185 234.039 31.2865C234.663 32.6305 235.275 34.0105 235.875 35.4265C236.475 36.8425 237.039 38.1745 237.567 39.4225C238.095 38.1745 238.659 36.8425 239.259 35.4265C239.859 34.0105 240.459 32.6305 241.059 31.2865C241.683 29.9185 242.271 28.6585 242.823 27.5065C243.399 26.3305 243.903 25.3465 244.335 24.5545H249.447C249.687 26.2105 249.903 28.0705 250.095 30.1345C250.311 32.1745 250.491 34.3105 250.635 36.5425C250.803 38.7505 250.947 40.9705 251.067 43.2025C251.211 45.4345 251.331 47.5345 251.427 49.5025H245.955C245.883 47.0785 245.787 44.4385 245.667 41.5825C245.547 38.7265 245.367 35.8465 245.127 32.9425C244.695 33.9505 244.215 35.0665 243.687 36.2905C243.159 37.5145 242.631 38.7385 242.103 39.9625C241.599 41.1865 241.107 42.3625 240.627 43.4905C240.147 44.5945 239.739 45.5425 239.403 46.3345H235.479C235.143 45.5425 234.735 44.5945 234.255 43.4905C233.775 42.3625 233.271 41.1865 232.743 39.9625C232.239 38.7385 231.723 37.5145 231.195 36.2905C230.667 35.0665 230.187 33.9505 229.755 32.9425C229.515 35.8465 229.335 38.7265 229.215 41.5825C229.095 44.4385 228.999 47.0785 228.927 49.5025H223.455C223.551 47.5345 223.659 45.4345 223.779 43.2025C223.923 40.9705 224.067 38.7505 224.211 36.5425C224.379 34.3105 224.559 32.1745 224.751 30.1345C224.967 28.0705 225.195 26.2105 225.435 24.5545H230.799ZM256.484 49.5025V24.5545H273.332V29.2705H262.1V34.1665H272.072V38.7745H262.1V44.7865H274.16V49.5025H256.484ZM296.82 24.5545V29.3425H289.296V49.5025H283.68V29.3425H276.156V24.5545H296.82ZM307.917 24.2665C311.637 24.2665 314.493 24.9265 316.485 26.2465C318.477 27.5425 319.473 29.6785 319.473 32.6545C319.473 35.6545 318.465 37.8265 316.449 39.1705C314.433 40.4905 311.553 41.1505 307.809 41.1505H306.045V49.5025H300.429V24.9145C301.653 24.6745 302.949 24.5065 304.317 24.4105C305.685 24.3145 306.885 24.2665 307.917 24.2665ZM308.277 29.0545C307.869 29.0545 307.461 29.0665 307.053 29.0905C306.669 29.1145 306.333 29.1385 306.045 29.1625V36.3625H307.809C309.753 36.3625 311.217 36.0985 312.201 35.5705C313.185 35.0425 313.677 34.0585 313.677 32.6185C313.677 31.9225 313.545 31.3465 313.281 30.8905C313.041 30.4345 312.681 30.0745 312.201 29.8105C311.745 29.5225 311.181 29.3305 310.509 29.2345C309.837 29.1145 309.093 29.0545 308.277 29.0545Z" fill="#428CCD"/>
</svg>
