<svg width="25" height="25" viewBox="0 0 25 25" fill="none" xmlns="http://www.w3.org/2000/svg">
<g clip-path="url(#clip0_901_269)">
<path d="M3.4262 4.08752H20.4262C20.9566 4.08752 21.4653 4.29824 21.8404 4.67331C22.2155 5.04838 22.4262 5.55709 22.4262 6.08752V8.08752H18.4262V6.08752H5.4262V18.0875H14.4262V20.0875H3.4262C2.89577 20.0875 2.38706 19.8768 2.01199 19.5017C1.63692 19.1267 1.4262 18.618 1.4262 18.0875V6.08752C1.4262 5.55709 1.63692 5.04838 2.01199 4.67331C2.38706 4.29824 2.89577 4.08752 3.4262 4.08752V4.08752ZM17.4262 10.0875H23.4262C23.6914 10.0875 23.9458 10.1929 24.1333 10.3804C24.3208 10.568 24.4262 10.8223 24.4262 11.0875V21.0875C24.4262 21.3527 24.3208 21.6071 24.1333 21.7946C23.9458 21.9822 23.6914 22.0875 23.4262 22.0875H17.4262C17.161 22.0875 16.9066 21.9822 16.7191 21.7946C16.5316 21.6071 16.4262 21.3527 16.4262 21.0875V11.0875C16.4262 10.8223 16.5316 10.568 16.7191 10.3804C16.9066 10.1929 17.161 10.0875 17.4262 10.0875ZM18.4262 12.0875V19.0875H22.4262V12.0875H18.4262Z" fill="#2A77C9"/>
</g>
<defs>
<clipPath id="clip0_901_269">
<rect width="24" height="24" fill="white" transform="translate(0.426205 0.0875244)"/>
</clipPath>
</defs>
</svg>
