<svg width="24" height="24" viewBox="0 0 24 24" fill="none" xmlns="http://www.w3.org/2000/svg">
<path d="M12 4.00001C14.1 4.00001 16.1 4.80001 17.6 6.30001C20.7 9.40001 20.7 14.5 17.6 17.6C15.8 19.5 13.3 20.2 10.9 19.9L11.4 17.9C13.1 18.1 14.9 17.5 16.2 16.2C18.5 13.9 18.5 10.1 16.2 7.70001C15.1 6.60001 13.5 6.00001 12 6.00001V10.6L7 5.60001L12 0.600006V4.00001ZM6.3 17.6C3.7 15 3.3 11 5.1 7.90001L6.6 9.40001C5.5 11.6 5.9 14.4 7.8 16.2C8.3 16.7 8.9 17.1 9.6 17.4L9 19.4C8 19 7.1 18.4 6.3 17.6Z" fill="#2A77C9"/>
</svg>
