<svg width="25" height="24" viewBox="0 0 25 24" fill="none" xmlns="http://www.w3.org/2000/svg">
<path d="M12.574 2C11.2608 2 9.9604 2.25866 8.74714 2.7612C7.53388 3.26375 6.43149 4.00035 5.50291 4.92893C3.62754 6.8043 2.57397 9.34784 2.57397 12C2.57397 14.6522 3.62754 17.1957 5.50291 19.0711C6.43149 19.9997 7.53388 20.7362 8.74714 21.2388C9.9604 21.7413 11.2608 22 12.574 22C15.2261 22 17.7697 20.9464 19.645 19.0711C21.5204 17.1957 22.574 14.6522 22.574 12C22.574 10.6868 22.3153 9.38642 21.8128 8.17317C21.3102 6.95991 20.5736 5.85752 19.645 4.92893C18.7165 4.00035 17.6141 3.26375 16.4008 2.7612C15.1876 2.25866 13.8872 2 12.574 2M12.574 4C14.6957 4 16.7305 4.84285 18.2308 6.34315C19.7311 7.84344 20.574 9.87827 20.574 12C20.574 14.4 19.574 16.5 17.874 18C16.474 16.7 14.574 16 12.574 16C10.574 16 8.77397 16.7 7.27397 18C5.57397 16.5 4.57397 14.4 4.57397 12C4.57397 9.87827 5.41683 7.84344 6.91712 6.34315C8.41741 4.84285 10.4522 4 12.574 4M14.574 5.89C14.194 5.9 13.834 6.15 13.674 6.54L12.384 9.77L12.284 10C11.574 10.13 10.984 10.6 10.714 11.26C10.304 12.29 10.804 13.45 11.834 13.86C12.864 14.27 14.024 13.77 14.434 12.74C14.694 12.08 14.574 11.32 14.144 10.76L14.244 10.5L15.534 7.29L15.544 7.26C15.744 6.75 15.494 6.17 14.984 5.96C14.854 5.91 14.724 5.89 14.574 5.89ZM10.574 6C10.3088 6 10.0544 6.10536 9.86687 6.29289C9.67933 6.48043 9.57397 6.73478 9.57397 7C9.57397 7.26522 9.67933 7.51957 9.86687 7.70711C10.0544 7.89464 10.3088 8 10.574 8C10.8392 8 11.0935 7.89464 11.2811 7.70711C11.4686 7.51957 11.574 7.26522 11.574 7C11.574 6.73478 11.4686 6.48043 11.2811 6.29289C11.0935 6.10536 10.8392 6 10.574 6ZM7.57397 9C7.30876 9 7.0544 9.10536 6.86687 9.29289C6.67933 9.48043 6.57397 9.73478 6.57397 10C6.57397 10.2652 6.67933 10.5196 6.86687 10.7071C7.0544 10.8946 7.30876 11 7.57397 11C7.83919 11 8.09354 10.8946 8.28108 10.7071C8.46862 10.5196 8.57397 10.2652 8.57397 10C8.57397 9.73478 8.46862 9.48043 8.28108 9.29289C8.09354 9.10536 7.83919 9 7.57397 9ZM17.574 9C17.3088 9 17.0544 9.10536 16.8669 9.29289C16.6793 9.48043 16.574 9.73478 16.574 10C16.574 10.2652 16.6793 10.5196 16.8669 10.7071C17.0544 10.8946 17.3088 11 17.574 11C17.8392 11 18.0935 10.8946 18.2811 10.7071C18.4686 10.5196 18.574 10.2652 18.574 10C18.574 9.73478 18.4686 9.48043 18.2811 9.29289C18.0935 9.10536 17.8392 9 17.574 9Z" fill="#556674"/>
</svg>
