<svg fill="none" height="166" viewBox="0 0 309 166" width="309" xmlns="http://www.w3.org/2000/svg">
    <path d="M61.6073 61.5635C59.1255 61.1923 56.5852 61 54 61C25.8335 61 3 83.8335 3 112C3 139.832 25.295 162.458 53 162.99V163H262C286.301 163 306 143.301 306 119C306 99.8986 293.828 83.6401 276.818 77.5574M61.6073 61.5635C73.0588 47.2028 90.7047 38 110.5 38C116.951 38 123.173 38.9773 129.028 40.7919M61.6073 61.5635C61.6073 61.5635 71.5 63.5 77 69.5M129.028 40.7919C143.147 18.1028 168.31 3 197 3C239.354 3 274.02 35.9129 276.818 77.5574M129.028 40.7919C129.028 40.7919 140.5 43.5 146.5 50.5M276.818 77.5574C276.818 77.5574 266 73.5 258.5 79.5"
          stroke="#F24F3D" stroke-linecap="round" stroke-linejoin="round" stroke-width="6"/>
    <circle cx="174" cy="79" fill="#F24F3D" r="6"/>
    <circle cx="217" cy="79" fill="#F24F3D" r="6"/>
    <path d="M148.5 117C174.5 102.5 213.5 103 242.5 117" stroke="#F24F3D" stroke-linecap="round" stroke-width="5"/>
</svg>
